HIERARCHY
ROOT SpineBase
{
  OFFSET 0.000000 0.000000 0.000000
  CHANNELS 6 Xposition Yposition Zposition Zrotation Xrotation Yrotation
  JOINT SpineMid
  {
    OFFSET 0.000000 29.193499 0.000000
    CHANNELS 3 Zrotation Xrotation Yrotation
    JOINT SpineShoulder
    {
      OFFSET -0.041361 21.628698 -0.665872
      CHANNELS 3 Zrotation Xrotation Yrotation
      JOINT Neck
      {
        OFFSET -0.023653 7.163071 -0.530970
        CHANNELS 3 Zrotation Xrotation Yrotation
        JOINT Head
        {
          OFFSET -2.982438 12.784845 0.443908
          CHANNELS 3 Zrotation Xrotation Yrotation
          End Site
          {
            OFFSET 0 0 0
          }
        }
      }
      JOINT ShoulderLeft
      {
        OFFSET -14.211620 -3.795869 7.298226
        CHANNELS 3 Zrotation Xrotation Yrotation
        JOINT ElbowLeft
        {
          OFFSET -0.463165 -24.521330 -2.526783
          CHANNELS 3 Zrotation Xrotation Yrotation
          JOINT WristLeft
          {
            OFFSET -0.903734 -20.192644 3.840449
            CHANNELS 3 Zrotation Xrotation Yrotation
            JOINT HandLeft
            {
              OFFSET 0.930250 -7.463741 -0.954291
              CHANNELS 3 Zrotation Xrotation Yrotation
              JOINT HandTipLeft
              {
                OFFSET 0.188593 -7.018635 -0.305440
                CHANNELS 3 Zrotation Xrotation Yrotation
                End Site
                {
                  OFFSET 0 0 0
                }
              }
              JOINT ThumbLeft
              {
                OFFSET -1.965217 0.830223 -0.378644
                CHANNELS 3 Zrotation Xrotation Yrotation
                End Site
                {
                  OFFSET 0 0 0
                }
              }
            }
          }
        }
      }
      JOINT ShoulderRight
      {
        OFFSET 10.313331 -3.749082 -11.386846
        CHANNELS 3 Zrotation Xrotation Yrotation
        JOINT ElbowRight
        {
          OFFSET 6.952232 -22.017574 -1.282416
          CHANNELS 3 Zrotation Xrotation Yrotation
          JOINT WristRight
          {
            OFFSET -0.799094 -20.622409 -4.866173
            CHANNELS 3 Zrotation Xrotation Yrotation
            JOINT HandRight
            {
              OFFSET -1.607855 -6.946548 -0.080067
              CHANNELS 3 Zrotation Xrotation Yrotation
              JOINT HandTipRight
              {
                OFFSET -0.402812 -6.436483 0.137356
                CHANNELS 3 Zrotation Xrotation Yrotation
                End Site
                {
                  OFFSET 0 0 0
                }
              }
              JOINT ThumbRight
              {
                OFFSET 3.150241 0.436281 -1.247401
                CHANNELS 3 Zrotation Xrotation Yrotation
                End Site
                {
                  OFFSET 0 0 0
                }
              }
            }
          }
        }
      }
    }
  }
  JOINT HipLeft
  {
    OFFSET -5.177812 0.804617 -0.162274
    CHANNELS 3 Zrotation Xrotation Yrotation
    JOINT KneeLeft
    {
      OFFSET 6.281823 -28.611005 7.987111
      CHANNELS 3 Zrotation Xrotation Yrotation
      JOINT AnkleLeft
      {
        OFFSET 5.460849 -28.803108 7.504371
        CHANNELS 3 Zrotation Xrotation Yrotation
        JOINT FootLeft
        {
          OFFSET -4.657784 -2.935499 -9.430093
          CHANNELS 3 Zrotation Xrotation Yrotation
          End Site
          {
            OFFSET 0 0 0
          }
        }
      }
    }
  }
  JOINT HipRight
  {
    OFFSET 4.980040 0.766896 -6.494155
    CHANNELS 3 Zrotation Xrotation Yrotation
    JOINT KneeRight
    {
      OFFSET 9.496223 -26.904709 4.215004
      CHANNELS 3 Zrotation Xrotation Yrotation
      JOINT AnkleRight
      {
        OFFSET 5.255448 -30.786736 6.236277
        CHANNELS 3 Zrotation Xrotation Yrotation
        JOINT FootRight
        {
          OFFSET -4.645705 -3.121209 -8.731970
          CHANNELS 3 Zrotation Xrotation Yrotation
          End Site
          {
            OFFSET 0 0 0
          }
        }
      }
    }
  }
}
MOTION
Frames: 16
Frame Time: 0.033333
9.332622 64.166884 331.986200 -0.000000 0.000000 31.937285 -0.000000 0.000000 -31.937285 -0.000000 0.000000 0.000000 -0.000000 0.000000 0.000000 0.000000 0.000000 0.000000 -0.000000 0.000000 0.000000 -0.000000 0.000000 0.000000 -0.000000 0.000000 0.000000 -0.000000 0.000000 0.000000 0.000000 0.000000 0.000000 0.000000 0.000000 0.000000 -0.000000 0.000000 0.000000 -0.000000 0.000000 0.000000 -0.000000 0.000000 0.000000 -0.000000 0.000000 0.000000 0.000000 0.000000 0.000000 0.000000 0.000000 0.000000 -0.000000 0.000000 -31.937285 -0.000000 0.000000 0.000000 -0.000000 0.000000 0.000000 0.000000 0.000000 0.000000 -0.000000 0.000000 -31.937285 -0.000000 0.000000 0.000000 -0.000000 0.000000 0.000000 0.000000 0.000000 0.000000
9.268347 64.154332 332.068253 -0.090894 -0.118660 31.935279 0.139903 0.052620 -31.935438 -0.000000 0.000000 0.000000 -0.000000 0.000000 0.000000 0.000000 0.000000 0.000000 -0.000000 0.000000 0.000000 -0.000000 0.000000 0.000000 -1.291754 2.202427 0.464042 1.274829 -2.212264 -0.414595 0.000000 0.000000 0.000000 0.000000 0.000000 0.000000 -0.000000 0.000000 0.000000 -0.000000 0.000000 0.000000 1.253306 0.456918 -0.125515 -2.350569 -2.309360 0.181019 0.000000 0.000000 0.000000 0.000000 0.000000 0.000000 0.139903 0.052620 -31.935438 -0.000000 0.000000 0.000000 -0.000000 0.000000 0.000000 0.000000 0.000000 0.000000 0.139903 0.052620 -31.935438 -0.000000 0.000000 0.000000 2.114796 -5.550835 2.931546 0.000000 0.000000 0.000000
9.212840 64.144339 332.133332 -0.164929 -0.209460 31.939571 0.250769 0.090496 -31.940071 -0.000000 0.000000 0.000000 -0.000000 0.000000 0.000000 0.000000 0.000000 0.000000 -0.000000 0.000000 0.000000 0.349276 -1.224013 0.124707 -2.909966 5.335602 0.868190 1.863201 -2.821763 -0.723071 0.000000 0.000000 0.000000 0.000000 0.000000 0.000000 -0.000000 0.000000 0.000000 -0.000000 0.000000 0.000000 2.038146 0.951367 -0.261679 -3.844617 -4.178046 0.308491 0.000000 0.000000 0.000000 0.000000 0.000000 0.000000 0.250769 0.090496 -31.940071 -0.000000 0.000000 0.000000 -0.000000 0.000000 0.000000 0.000000 0.000000 0.000000 -0.469245 -0.333220 -32.263620 0.899806 1.648788 0.568901 3.714166 -11.328828 5.537944 0.000000 0.000000 0.000000
9.166101 64.136905 332.181437 -0.222108 -0.272404 31.950348 0.332612 0.113598 -31.951206 -0.000000 0.000000 0.000000 -0.000000 0.000000 0.000000 0.000000 0.000000 0.000000 -0.000000 0.000000 0.000000 0.498014 -1.724068 0.178902 -4.266858 7.344428 1.314986 2.604872 -3.800057 -0.988050 0.000000 0.000000 0.000000 0.000000 0.000000 0.000000 -0.000000 0.000000 0.000000 -0.000000 0.000000 0.000000 2.378424 1.488353 -0.404713 -4.575749 -5.706716 0.418412 0.000000 0.000000 0.000000 0.000000 0.000000 0.000000 0.332612 0.113598 -31.951206 -0.000000 0.000000 0.000000 -0.000000 0.000000 0.000000 0.000000 0.000000 0.000000 -0.578424 -0.357141 -32.346533 1.237325 2.004597 0.709038 5.227270 -14.984786 7.643824 0.000000 0.000000 0.000000
9.128130 64.132030 332.212567 -0.262432 -0.307496 31.967688 0.385435 0.121917 -31.968802 -0.000000 0.000000 0.000000 -0.000000 0.000000 0.000000 0.000000 0.000000 0.000000 -0.000000 0.000000 0.000000 0.625538 -2.136209 0.225509 -5.486802 8.773917 1.707519 3.167482 -4.364937 -1.185360 0.000000 0.000000 0.000000 0.000000 0.000000 0.000000 -0.000000 0.000000 0.000000 -0.000000 0.000000 0.000000 2.288446 2.073869 -0.550304 -4.596219 -6.961004 0.536595 0.000000 0.000000 0.000000 0.000000 0.000000 0.000000 0.385435 0.121917 -31.968802 -0.000000 0.000000 0.000000 -0.000000 0.000000 0.000000 0.000000 0.000000 0.000000 -0.610599 -0.290818 -32.378438 1.502740 2.046214 0.759169 5.882940 -16.535132 8.564204 0.000000 0.000000 0.000000
9.098928 64.129714 332.226723 -0.285904 -0.314739 31.991559 0.409230 0.115464 -31.992757 -0.000000 0.000000 0.000000 -0.000000 0.000000 0.000000 0.000000 0.000000 0.000000 -0.000000 0.000000 0.000000 0.729329 -2.452417 0.263104 -6.513307 9.541453 1.995241 3.513811 -4.440231 -1.311191 0.000000 0.000000 0.000000 0.000000 0.000000 0.000000 -0.000000 0.000000 0.000000 -0.000000 0.000000 0.000000 1.773195 2.714686 -0.693205 -3.925823 -7.980412 0.684727 0.000000 0.000000 0.000000 0.000000 0.000000 0.000000 0.409230 0.115464 -31.992757 -0.000000 0.000000 0.000000 -0.000000 0.000000 0.000000 0.000000 0.000000 0.000000 -0.566864 -0.133436 -32.359410 1.695995 1.772513 0.721456 5.427490 -15.773023 8.016723 0.000000 0.000000 0.000000
9.066964 64.134026 332.201220 -0.308912 -0.251075 31.989714 0.395013 0.049294 -31.990561 -0.000000 0.000000 0.000000 0.488829 0.730255 0.150085 0.000000 0.000000 0.000000 -0.000000 0.000000 0.000000 0.784203 -3.052624 0.305246 -7.634886 9.060809 2.088085 3.265947 -2.738400 -1.287836 0.000000 0.000000 0.000000 0.000000 0.000000 0.000000 -0.000000 0.000000 0.000000 -0.000000 0.000000 0.000000 1.777766 2.351061 -0.603248 -2.708338 -6.930999 0.716755 0.000000 0.000000 0.000000 0.000000 0.000000 0.000000 0.395013 0.049294 -31.990561 -0.000000 0.000000 0.000000 -0.000000 0.000000 0.000000 0.000000 0.000000 0.000000 -0.756115 -0.139331 -32.401165 1.949150 1.832492 0.778265 2.689519 -10.359262 4.406972 0.000000 0.000000 0.000000
9.045585 64.131036 332.181003 -0.308893 -0.200699 32.039718 0.368315 0.006257 -32.040279 -0.000000 0.000000 0.000000 0.541197 0.802420 0.164389 0.000000 0.000000 0.000000 -0.000000 0.000000 0.000000 0.851849 -3.046162 0.319521 -7.987208 8.214415 1.988194 3.401338 -0.148063 -1.106329 0.000000 0.000000 0.000000 0.000000 0.000000 0.000000 -0.282980 0.747255 0.254384 0.279683 -0.748495 -0.250712 0.228714 3.149853 -0.738273 0.409966 -8.249435 1.117015 0.000000 0.000000 0.000000 0.000000 0.000000 0.000000 0.368315 0.006257 -32.040279 -0.000000 0.000000 0.000000 -0.000000 0.000000 0.000000 0.000000 0.000000 0.000000 -0.425797 0.271676 -32.235597 1.894424 0.679297 0.487996 -0.030468 -3.023060 0.598726 0.000000 0.000000 0.000000
9.060162 64.124289 332.136357 -0.262168 -0.120885 32.192484 0.286266 -0.037374 -32.192668 -0.000000 0.000000 0.000000 0.588813 0.891471 0.182672 0.000000 0.000000 0.000000 -0.000000 0.000000 0.000000 0.856285 -2.449217 0.289716 -7.916420 2.378124 0.945651 4.812476 4.926369 -0.569490 0.000000 0.000000 0.000000 0.000000 0.000000 0.000000 -0.278940 0.796989 0.269945 -0.344526 -0.258294 -0.145949 -1.864388 5.067579 -1.286587 4.822152 -12.087579 2.182778 0.000000 0.000000 0.000000 0.000000 0.000000 0.000000 0.286266 -0.037374 -32.192668 -0.000000 0.000000 0.000000 -0.000000 0.000000 0.000000 0.000000 0.000000 0.000000 0.318954 1.108470 -31.935056 1.562930 -1.557739 -0.127681 -2.218249 4.842454 -2.632491 0.000000 0.000000 0.000000
9.113103 64.117143 332.069590 -0.158640 -0.002545 32.294480 0.135461 -0.082605 -32.294386 -0.000000 0.000000 0.000000 0.555221 0.900360 0.186137 0.000000 0.000000 0.000000 -0.000000 0.000000 0.000000 0.397586 -2.982652 0.218441 -6.371760 6.533514 1.508626 3.490937 0.071120 -0.889175 0.000000 0.000000 0.000000 0.000000 0.000000 0.000000 -0.000000 0.000000 0.000000 -1.515828 1.390405 0.321134 -4.602593 4.753871 -1.437303 7.190134 -9.934864 2.050812 0.000000 0.000000 0.000000 0.000000 0.000000 0.000000 0.135461 -0.082605 -32.294386 -0.000000 0.000000 0.000000 -0.840932 2.283779 -0.842177 0.000000 0.000000 0.000000 0.152916 1.257668 -32.000152 1.577755 -1.963319 -0.223016 -2.266300 5.763873 -3.038881 0.000000 0.000000 0.000000
9.189567 64.119092 332.093458 -0.014481 -0.042248 32.272487 0.034802 0.027990 -32.272501 -0.000000 0.000000 0.000000 0.498912 0.856641 0.178559 0.000000 0.000000 0.000000 -0.018229 -1.337961 0.026971 0.746756 0.107852 0.156678 -5.624366 7.197338 1.543631 4.005613 -0.882891 -0.985464 0.000000 0.000000 0.000000 0.000000 0.000000 0.000000 -0.000000 0.000000 0.000000 -4.039873 2.934960 0.936488 -6.615017 4.250806 -2.104034 8.607384 -6.617140 1.806357 0.000000 0.000000 0.000000 0.000000 0.000000 0.000000 0.034802 0.027990 -32.272501 -0.000000 0.000000 0.000000 -1.025031 2.495645 -0.595133 0.000000 0.000000 0.000000 0.469565 1.952324 -31.724637 1.322583 -3.181111 -0.598063 -1.234421 3.543044 -1.608052 0.000000 0.000000 0.000000
9.294111 64.120187 332.190150 0.172494 -0.199413 32.144513 -0.039954 0.260621 -32.144122 -0.000000 0.000000 0.000000 0.389674 0.702568 0.147828 0.000000 0.000000 0.000000 -1.134317 -5.076533 0.163268 2.765643 7.053163 -0.220526 -7.261740 6.814525 1.816369 8.945601 0.258412 -1.021266 0.000000 0.000000 0.000000 0.000000 0.000000 0.000000 1.058811 0.266756 0.020032 -9.707110 5.792823 2.170040 -6.953126 -0.477977 -3.256541 7.287082 -1.755523 0.827507 0.000000 0.000000 0.000000 0.000000 0.000000 0.000000 -0.039954 0.260621 -32.144122 -0.000000 0.000000 0.000000 1.849131 -3.422106 -0.516802 0.000000 0.000000 0.000000 0.975712 2.999755 -31.252085 1.014218 -4.704494 -1.088903 -1.026499 4.038238 -1.484965 0.000000 0.000000 0.000000
9.438145 64.115382 332.304421 0.407673 -0.410721 31.909226 -0.128982 0.564136 -31.907129 -0.000000 0.000000 0.000000 -0.000000 0.000000 0.000000 0.000000 0.000000 0.000000 -1.618285 -6.576194 0.199263 4.204501 11.946606 -0.568815 -4.045349 4.092224 1.013493 6.323903 2.588789 -0.839515 0.000000 0.000000 0.000000 0.000000 0.000000 0.000000 1.825234 -0.029013 -0.114445 -17.464360 9.439770 4.645163 -5.406305 -4.968250 -5.308587 4.790477 3.537490 0.536082 0.000000 0.000000 0.000000 0.000000 0.000000 0.000000 -0.128982 0.564136 -31.907129 -0.000000 0.000000 0.000000 4.381688 -8.525356 -0.291080 0.000000 0.000000 0.000000 1.562082 4.219242 -30.635896 0.588297 -6.377204 -1.665867 -1.413370 7.061432 -2.955859 0.000000 0.000000 0.000000
9.593442 64.112834 332.432482 0.641754 -0.669614 31.566328 -0.196307 0.906465 -31.561025 -0.000000 0.000000 0.000000 -0.000000 0.000000 0.000000 0.000000 0.000000 0.000000 -2.347449 -8.860561 0.229463 6.146724 17.832119 -1.201500 -2.299384 0.467839 0.578502 5.325954 3.734751 -0.723887 0.000000 0.000000 0.000000 0.000000 0.000000 0.000000 2.745888 -0.309358 -0.248392 -27.134011 13.511891 8.264831 -5.069319 -11.070779 -8.500593 3.191021 8.483362 0.793318 0.000000 0.000000 0.000000 0.000000 0.000000 0.000000 -0.756693 1.505609 -31.722673 0.791621 -0.214949 0.174928 6.302240 -12.276990 -0.057451 0.000000 0.000000 0.000000 2.169214 5.464639 -29.929458 0.074961 -7.881908 -2.250396 -1.061759 6.999607 -2.446511 0.000000 0.000000 0.000000
9.730174 64.071451 332.523726 0.845333 -0.867161 31.155134 -0.274877 1.179387 -31.145908 0.269442 -0.812665 0.019190 -0.269197 0.812746 -0.015370 0.000000 0.000000 0.000000 -3.474667 -10.700261 0.258339 8.424553 23.879722 -2.140022 -1.906442 -5.353385 0.162791 6.063701 11.027722 -0.903478 0.000000 0.000000 0.000000 0.000000 0.000000 0.000000 3.611790 0.568405 -0.361450 -38.645709 16.938021 12.849589 -6.792982 -19.147099 -13.764393 2.441981 16.634565 2.288585 0.000000 0.000000 0.000000 0.000000 0.000000 0.000000 -1.105911 1.893784 -31.385963 1.081275 -0.176983 0.264010 7.373707 -14.300546 0.031034 0.000000 0.000000 0.000000 2.210172 6.114576 -29.411200 -0.038038 -8.321401 -2.433915 1.147201 0.567729 1.220729 0.000000 0.000000 0.000000
9.783357 64.204391 332.624403 0.919206 -1.033226 31.190139 -0.251387 1.359860 -31.178868 0.366071 -0.991861 0.027011 -0.365659 0.992013 -0.020677 0.000000 0.000000 0.000000 -5.405438 -16.166171 0.155392 12.252035 32.314672 -4.214295 -1.823716 -11.014052 -0.160990 5.845968 15.521155 -1.035813 0.000000 0.000000 0.000000 0.000000 0.000000 0.000000 4.667372 1.122642 -0.360338 -52.969560 19.549700 18.905162 -5.855961 -26.311769 -20.481563 1.807679 18.344432 3.170751 0.000000 0.000000 0.000000 0.000000 0.000000 0.000000 -1.274013 2.322201 -31.465601 1.374222 -0.286861 0.323029 7.455719 -14.464241 0.073272 0.000000 0.000000 0.000000 1.993466 6.173818 -29.537700 0.130592 -7.849027 -2.279727 3.639211 -6.099766 5.287852 0.000000 0.000000 0.000000
